<?xml version="1.0" encoding="utf-8"?>
<!-- Generator: Adobe Illustrator 16.0.0, SVG Export Plug-In . SVG Version: 6.00 Build 0)  -->
<!DOCTYPE svg PUBLIC "-//W3C//DTD SVG 1.1//EN" "http://www.w3.org/Graphics/SVG/1.1/DTD/svg11.dtd">
<svg version="1.1" id="Layer_1" xmlns="http://www.w3.org/2000/svg" xmlns:xlink="http://www.w3.org/1999/xlink" x="0px" y="0px"
	 width="32.59px" height="27.25px" viewBox="0 0 32.59 27.25" enable-background="new 0 0 32.59 27.25" xml:space="preserve">
<path fill="#2BBCBB" d="M32.59,3.126c0,1.313-0.952,2.376-2.126,2.376H9.626C8.452,5.503,7.5,4.439,7.5,3.126l0,0
	c0-1.313,0.952-2.376,2.126-2.376h20.837C31.638,0.75,32.59,1.814,32.59,3.126L32.59,3.126z"/>
<path fill="#2BBCBB" d="M32.59,13.253c0,1.313-1.151,2.376-2.571,2.376H4.821c-1.42,0-2.571-1.064-2.571-2.376l0,0
	c0-1.313,1.151-2.376,2.571-2.376h25.198C31.439,10.876,32.59,11.94,32.59,13.253L32.59,13.253z"/>
<path fill="#2BBCBB" d="M32.59,23.253c0,1.313-0.867,2.376-1.936,2.376H11.686c-1.069,0-1.936-1.064-1.936-2.376l0,0
	c0-1.313,0.867-2.376,1.936-2.376h18.969C31.724,20.876,32.59,21.94,32.59,23.253L32.59,23.253z"/>
</svg>
